<svg width="32" height="32" viewBox="0 0 32 32" fill="none" xmlns="http://www.w3.org/2000/svg">
<circle cx="16" cy="16" r="15.5" stroke="white"/>
<path d="M15.9999 8.12962C18.5632 8.12962 18.8668 8.13942 19.8791 8.1856C20.8151 8.22828 21.3234 8.38467 21.6617 8.51614C22.1098 8.69029 22.4296 8.89832 22.7655 9.23423C23.1015 9.57019 23.3095 9.88998 23.4837 10.3381C23.6151 10.6764 23.7715 11.1847 23.8142 12.1207C23.8604 13.1329 23.8702 13.4366 23.8702 15.9998C23.8702 18.5632 23.8604 18.8668 23.8142 19.8791C23.7715 20.8151 23.6151 21.3234 23.4837 21.6617C23.3095 22.1098 23.1015 22.4296 22.7656 22.7655C22.4296 23.1014 22.1098 23.3094 21.6617 23.4836C21.3234 23.6151 20.8151 23.7715 19.8791 23.8141C18.867 23.8603 18.5634 23.8701 15.9999 23.8701C13.4364 23.8701 13.1328 23.8603 12.1207 23.8141C11.1847 23.7715 10.6764 23.6151 10.3381 23.4836C9.88999 23.3094 9.5702 23.1014 9.23428 22.7655C8.89837 22.4296 8.6903 22.1098 8.51615 21.6617C8.38468 21.3234 8.22829 20.8151 8.18561 19.8791C8.13942 18.8668 8.12963 18.5632 8.12963 15.9998C8.12963 13.4366 8.13942 13.1329 8.18561 12.1207C8.22829 11.1847 8.38468 10.6764 8.51615 10.3381C8.6903 9.88998 8.89833 9.57019 9.23428 9.23427C9.5702 8.89832 9.88999 8.69029 10.3381 8.51614C10.6764 8.38467 11.1847 8.22828 12.1207 8.1856C13.133 8.13942 13.4366 8.12962 15.9999 8.12962ZM15.9999 6.3999C13.3927 6.3999 13.0658 6.41095 12.0418 6.45767C11.02 6.50428 10.3222 6.66658 9.71154 6.90387C9.08025 7.1492 8.54488 7.47746 8.01115 8.01115C7.47746 8.54488 7.14921 9.08024 6.90391 9.71153C6.66658 10.3222 6.50428 11.02 6.45767 12.0418C6.41095 13.0658 6.3999 13.3927 6.3999 15.9998C6.3999 18.6071 6.41095 18.934 6.45767 19.9579C6.50428 20.9797 6.66658 21.6776 6.90391 22.2882C7.14921 22.9195 7.47746 23.4549 8.01115 23.9886C8.54488 24.5223 9.08025 24.8505 9.71154 25.0958C10.3222 25.3332 11.02 25.4955 12.0418 25.5421C13.0658 25.5888 13.3927 25.5998 15.9999 25.5998C18.6071 25.5998 18.934 25.5888 19.958 25.5421C20.9798 25.4955 21.6776 25.3332 22.2883 25.0958C22.9195 24.8505 23.4549 24.5223 23.9886 23.9886C24.5223 23.4549 24.8506 22.9195 25.0959 22.2882C25.3332 21.6776 25.4955 20.9797 25.5421 19.9579C25.5889 18.934 25.5999 18.6071 25.5999 15.9998C25.5999 13.3927 25.5889 13.0658 25.5421 12.0418C25.4955 11.02 25.3332 10.3222 25.0959 9.71153C24.8506 9.08024 24.5223 8.54488 23.9886 8.01115C23.4549 7.47746 22.9195 7.1492 22.2883 6.90387C21.6776 6.66658 20.9798 6.50428 19.958 6.45767C18.934 6.41095 18.6071 6.3999 15.9999 6.3999Z" fill="white"/>
<path d="M16.0045 11.0747C13.2818 11.0747 11.0747 13.2818 11.0747 16.0044C11.0747 18.727 13.2818 20.9341 16.0045 20.9341C18.7271 20.9341 20.9342 18.727 20.9342 16.0044C20.9342 13.2818 18.7271 11.0747 16.0045 11.0747ZM16.0045 19.2044C14.2371 19.2044 12.8044 17.7717 12.8044 16.0044C12.8044 14.2371 14.2371 12.8044 16.0045 12.8044C17.7718 12.8044 19.2044 14.2371 19.2044 16.0044C19.2044 17.7717 17.7718 19.2044 16.0045 19.2044Z" fill="white"/>
<path d="M22.2806 10.8771C22.2806 11.5133 21.7648 12.0291 21.1285 12.0291C20.4923 12.0291 19.9766 11.5133 19.9766 10.8771C19.9766 10.2409 20.4923 9.7251 21.1285 9.7251C21.7648 9.7251 22.2806 10.2409 22.2806 10.8771Z" fill="white"/>
</svg>
