<svg width="32" height="32" viewBox="0 0 32 32" fill="none" xmlns="http://www.w3.org/2000/svg">
<circle cx="16" cy="16" r="15.5" stroke="white"/>
<path fill-rule="evenodd" clip-rule="evenodd" d="M25.5999 9.84692C24.894 10.1605 24.1344 10.3717 23.3377 10.467C24.151 9.97939 24.7756 9.2076 25.0694 8.28798C24.3091 8.73979 23.465 9.06681 22.5684 9.24408C21.8498 8.47869 20.8252 8 19.6931 8C17.5179 8 15.7542 9.76372 15.7542 11.9389C15.7542 12.2474 15.7894 12.5482 15.8566 12.8368C12.5825 12.673 9.68032 11.1044 7.73741 8.72123C7.39824 9.30295 7.20433 9.97939 7.20433 10.7013C7.20433 12.0676 7.89868 13.2733 8.95653 13.9798C8.31017 13.9593 7.70349 13.782 7.17169 13.487V13.5363C7.17169 15.4453 8.53032 17.0368 10.3312 17.3997C10.0009 17.4893 9.65281 17.5379 9.29379 17.5379C9.03973 17.5379 8.7927 17.513 8.55208 17.4669C9.05316 19.0316 10.5084 20.1707 12.2318 20.2027C10.8841 21.2586 9.18564 21.889 7.34 21.889C7.0213 21.889 6.70772 21.8704 6.3999 21.8333C8.14315 22.9507 10.2134 23.6034 12.4379 23.6034C19.6829 23.6034 23.6448 17.6013 23.6448 12.3965C23.6448 12.2256 23.6416 12.0554 23.6333 11.8871C24.4038 11.3303 25.0719 10.6366 25.5999 9.84692Z" fill="white"/>
</svg>
