<?xml version="1.0" encoding="UTF-8"?>
<svg width="100px" height="76px" viewBox="0 0 100 76" version="1.1" xmlns="http://www.w3.org/2000/svg" xmlns:xlink="http://www.w3.org/1999/xlink">
    <title>1FC5FA70-CEBE-4044-BE56-A72DC7AA51B1</title>
    <g id="Desktop" stroke="none" stroke-width="1" fill="none" fill-rule="evenodd">
        <g id="quote-web" transform="translate(-31.000000, -166.000000)" fill="#1D8387" fill-rule="nonzero">
            <g id="Advice" transform="translate(22.000000, 45.000000)">
                <path d="M24.3271028,159 L9,159 L9,121 L49,121 L49,150.476636 C49,181.492367 35.6668,197 9,197 L9,183.859813 C19.2181196,183.859813 24.3271028,176.836 24.3271028,162.788162 L24.3271028,159 Z M84.3271028,159 L69,159 L69,121 L109,121 L109,150.476636 C109,181.492367 95.6668,197 69,197 L69,183.859813 C79.2181196,183.859813 84.3271028,176.836 84.3271028,162.788162 L84.3271028,159 Z" id="quote_icon" transform="translate(59.000000, 159.000000) rotate(-180.000000) translate(-59.000000, -159.000000) "></path>
            </g>
        </g>
    </g>
</svg>