<?xml version="1.0" standalone="no"?>
<!DOCTYPE svg PUBLIC "-//W3C//DTD SVG 20010904//EN"
 "http://www.w3.org/TR/2001/REC-SVG-20010904/DTD/svg10.dtd">
<svg version="1.0" xmlns="http://www.w3.org/2000/svg"
 width="512.000000pt" height="512.000000pt" viewBox="0 0 512.000000 512.000000"
 preserveAspectRatio="xMidYMid meet">
<metadata>
Created by potrace 1.11, written by Peter Selinger 2001-2013
</metadata>
<g transform="translate(0.000000,512.000000) scale(0.100000,-0.100000)"
fill="#000000" stroke="none">
<path d="M2410 4929 c-324 -17 -586 -87 -895 -239 -274 -135 -448 -263 -670
-492 -188 -193 -294 -345 -420 -603 -77 -156 -163 -396 -189 -525 -63 -315
-63 -705 0 -1020 56 -277 239 -671 432 -929 70 -93 280 -311 384 -398 254
-212 691 -425 998 -487 317 -64 703 -64 1020 0 307 62 744 275 998 487 104 87
314 305 384 398 193 258 376 652 432 929 64 317 64 703 0 1020 -56 277 -239
671 -432 929 -69 93 -267 298 -377 391 -252 214 -694 431 -1005 494 -198 40
-445 57 -660 45z m-159 -315 c88 -26 169 -78 169 -110 0 -8 -53 -70 -119 -137
-159 -164 -183 -216 -195 -409 -3 -49 -12 -100 -20 -117 -16 -31 -61 -71 -80
-71 -6 0 -36 27 -67 60 -40 42 -66 82 -90 137 -32 74 -34 84 -34 198 0 114 2
123 31 185 61 127 156 217 277 260 65 23 63 23 128 4z m398 -136 c59 -65 91
-132 115 -238 23 -103 23 -103 64 -125 61 -33 72 -44 72 -76 0 -22 -8 -34 -35
-51 -25 -17 -35 -30 -35 -49 0 -18 -10 -32 -37 -50 -57 -37 -63 -54 -31 -85
15 -15 43 -30 65 -33 37 -6 38 -7 41 -53 4 -58 -17 -102 -61 -128 -26 -16 -50
-20 -132 -20 l-101 0 -28 -87 c-30 -93 -63 -137 -111 -149 -33 -8 -88 5 -260
60 -156 50 -153 44 -96 203 37 105 38 111 20 116 -33 9 -21 23 35 40 102 32
136 80 136 189 0 35 7 93 14 129 24 114 65 178 198 315 66 68 125 124 130 124
4 0 21 -15 37 -32z m-859 -334 c32 -82 -20 -174 -107 -190 -43 -8 -53 1 -64
61 -9 51 -2 74 35 111 32 31 57 43 94 44 26 0 34 -5 42 -26z m-176 -152 c4
-33 14 -56 30 -71 l25 -23 -49 -92 c-95 -180 -125 -296 -185 -716 -47 -329
-70 -421 -144 -565 l-35 -70 -8 85 c-7 88 -26 478 -35 732 -6 155 6 238 49
358 32 86 107 206 173 274 54 57 150 135 166 136 4 0 9 -22 13 -48z m430 -572
c1 0 40 -12 87 -26 46 -15 103 -32 126 -38 33 -9 51 -24 95 -81 97 -126 204
-196 367 -241 129 -36 198 -97 232 -207 16 -50 19 -80 14 -115 -9 -64 -45
-141 -83 -177 -39 -37 -41 -61 -5 -70 15 -3 72 -28 128 -55 306 -147 495 -396
530 -701 l7 -55 -39 -18 c-44 -20 -43 -20 -190 67 -34 21 -64 37 -67 37 -3 0
-43 22 -88 49 -170 100 -362 201 -384 201 -12 0 -18 19 -60 194 -14 60 -29
116 -34 125 -4 9 -16 52 -25 96 -10 44 -23 105 -31 135 -7 30 -21 89 -30 130
-10 41 -21 80 -25 85 -4 6 -10 28 -15 50 -17 95 -54 228 -70 253 -36 56 -90
100 -144 116 -69 21 -88 20 -153 -4 -97 -36 -167 -134 -167 -234 0 -29 63
-239 78 -261 5 -5 15 -35 25 -65 43 -138 87 -271 96 -287 5 -10 26 -72 47
-138 20 -66 45 -138 54 -160 10 -22 31 -82 46 -134 50 -162 109 -210 369 -296
83 -27 152 -53 155 -56 3 -3 66 -27 140 -53 200 -68 283 -103 290 -118 11 -30
65 -90 92 -104 l28 -15 -29 -43 c-72 -104 -221 -212 -364 -262 -52 -18 -86
-36 -102 -56 -43 -51 -41 -81 10 -229 26 -74 51 -142 56 -151 9 -17 -24 -18
-624 -18 -682 0 -635 -3 -646 42 -1 4 -17 42 -36 83 -18 41 -31 75 -27 75 4 0
2 4 -4 8 -6 4 -28 50 -48 102 -21 52 -42 103 -47 112 -5 10 -9 24 -9 32 0 8
-6 21 -12 28 -14 15 -30 52 -61 148 -31 97 -30 278 2 375 25 75 60 145 72 145
4 0 11 10 15 22 11 36 136 151 195 180 72 35 143 111 170 183 20 53 21 70 16
298 -4 240 -4 243 -34 324 -17 45 -28 84 -25 87 3 3 0 6 -6 6 -7 0 -11 3 -10
8 1 7 -3 18 -27 82 -36 92 -48 160 -43 253 8 144 48 235 147 340 l45 47 14
-25 c7 -14 14 -25 16 -25z m314 -266 c44 -18 97 -67 119 -109 9 -16 28 -82 43
-145 41 -171 125 -507 164 -655 19 -71 40 -155 46 -185 14 -64 30 -86 68 -93
28 -6 176 -86 534 -290 64 -37 124 -67 133 -67 9 0 33 9 55 20 46 23 197 29
218 8 22 -22 13 -47 -24 -66 l-37 -19 45 -21 c58 -29 121 -83 158 -137 78
-113 1 -205 -169 -205 -42 0 -271 72 -309 96 -13 9 -37 36 -53 62 -19 30 -41
51 -62 59 -18 6 -113 41 -212 78 -99 36 -223 81 -275 99 -234 82 -298 111
-346 161 -31 31 -42 55 -90 194 -45 134 -102 297 -209 606 -81 233 -125 373
-125 395 0 73 66 172 142 212 41 23 135 24 186 2z"/>
<path d="M2583 4124 c-15 -24 -15 -29 -2 -53 29 -52 99 -35 99 24 0 57 -66 76
-97 29z"/>
</g>
</svg>
