<?xml version="1.0" standalone="no"?>
<!DOCTYPE svg PUBLIC "-//W3C//DTD SVG 20010904//EN"
 "http://www.w3.org/TR/2001/REC-SVG-20010904/DTD/svg10.dtd">
<svg version="1.0" xmlns="http://www.w3.org/2000/svg"
 width="512.000000pt" height="512.000000pt" viewBox="0 0 512.000000 512.000000"
 preserveAspectRatio="xMidYMid meet">
<metadata>
Created by potrace 1.11, written by Peter Selinger 2001-2013
</metadata>
<g transform="translate(0.000000,512.000000) scale(0.100000,-0.100000)"
fill="#000000" stroke="none">
<path d="M2410 4929 c-330 -18 -584 -86 -895 -239 -274 -135 -448 -263 -670
-492 -188 -193 -294 -345 -420 -603 -168 -342 -237 -642 -237 -1035 0 -393 69
-693 237 -1035 127 -260 232 -410 425 -609 220 -226 391 -351 665 -486 351
-173 647 -242 1045 -242 398 0 694 69 1045 242 274 135 445 260 665 486 193
199 298 349 425 609 122 248 198 503 225 755 25 228 12 550 -31 765 -60 300
-237 687 -437 954 -69 93 -267 298 -377 391 -246 209 -637 405 -968 485 -186
45 -467 67 -697 54z m250 -410 c157 -106 272 -334 258 -514 -12 -149 -132
-294 -266 -321 l-32 -6 0 201 0 201 -26 17 c-24 15 -29 15 -53 2 l-26 -15 -3
-202 c-3 -232 3 -221 -97 -173 -156 75 -228 235 -192 422 27 134 112 285 199
351 123 94 147 97 238 37z m595 -1120 c59 -22 127 -87 151 -144 11 -28 14
-121 14 -506 l0 -472 -25 -33 -25 -33 0 -768 c0 -727 -1 -770 -19 -809 -10
-23 -32 -51 -49 -62 l-30 -22 -709 0 -708 0 -37 31 c-23 18 -42 45 -48 67 -8
25 -10 318 -8 934 2 493 0 894 -4 892 -4 -3 -17 10 -28 28 -19 31 -20 50 -20
376 0 342 0 343 24 390 22 43 50 75 99 112 47 35 100 38 740 39 604 0 631 -1
682 -20z"/>
<path d="M1969 2463 c-13 -16 -12 -17 4 -4 9 7 17 15 17 17 0 8 -8 3 -21 -13z"/>
<path d="M2056 1331 c-13 -15 -16 -34 -14 -87 3 -62 5 -70 29 -83 24 -13 29
-13 53 2 24 16 26 23 26 87 0 49 -4 73 -16 84 -21 22 -57 20 -78 -3z"/>
<path d="M2997 1332 c-12 -13 -17 -37 -17 -85 0 -61 2 -68 26 -84 24 -15 29
-15 53 -2 24 13 26 21 29 83 2 53 -1 72 -14 87 -22 24 -56 24 -77 1z"/>
<path d="M2406 1248 c-21 -30 -20 -40 6 -73 69 -88 246 -83 312 8 19 26 19 30
5 55 -19 35 -63 41 -94 12 -36 -34 -83 -36 -128 -6 -47 32 -81 33 -101 4z"/>
</g>
</svg>
