<?xml version="1.0" standalone="no"?>
<!DOCTYPE svg PUBLIC "-//W3C//DTD SVG 20010904//EN"
 "http://www.w3.org/TR/2001/REC-SVG-20010904/DTD/svg10.dtd">
<svg version="1.0" xmlns="http://www.w3.org/2000/svg"
 width="512.000000pt" height="512.000000pt" viewBox="0 0 512.000000 512.000000"
 preserveAspectRatio="xMidYMid meet">
<metadata>
Created by potrace 1.11, written by Peter Selinger 2001-2013
</metadata>
<g transform="translate(0.000000,512.000000) scale(0.100000,-0.100000)"
fill="#000000" stroke="none">
<path d="M2347 4929 c-545 -45 -1070 -291 -1467 -689 -342 -341 -583 -797
-661 -1250 -47 -276 -47 -584 0 -860 78 -453 319 -909 661 -1250 341 -342 797
-583 1250 -661 428 -74 858 -37 1249 107 647 238 1177 769 1415 1415 115 313
162 645 138 976 -25 348 -90 590 -243 899 -296 601 -835 1047 -1495 1239 -238
69 -562 98 -847 74z m321 -485 c79 -50 62 -48 223 -29 53 7 58 6 92 -24 46
-41 62 -87 47 -138 -6 -21 -64 -144 -128 -273 l-117 -235 -226 -3 -225 -2
-124 252 c-140 284 -146 307 -98 370 42 55 84 65 175 42 l73 -18 42 22 c24 12
61 36 83 52 59 43 96 40 183 -16z m395 -1197 c285 -88 480 -280 578 -572 l24
-70 3 -762 3 -762 -26 -77 c-60 -180 -190 -302 -375 -353 -72 -20 -98 -21
-708 -21 -698 0 -692 -1 -821 63 -124 60 -231 185 -271 315 -19 62 -20 94 -20
809 0 719 1 747 21 826 53 212 192 402 374 512 79 47 186 90 270 109 58 12
140 15 465 13 l395 -3 88 -27z"/>
</g>
</svg>
