<?xml version="1.0" standalone="no"?>
<!DOCTYPE svg PUBLIC "-//W3C//DTD SVG 20010904//EN"
 "http://www.w3.org/TR/2001/REC-SVG-20010904/DTD/svg10.dtd">
<svg version="1.0" xmlns="http://www.w3.org/2000/svg"
 width="512.000000pt" height="512.000000pt" viewBox="0 0 512.000000 512.000000"
 preserveAspectRatio="xMidYMid meet">
<metadata>
Created by potrace 1.11, written by Peter Selinger 2001-2013
</metadata>
<g transform="translate(0.000000,512.000000) scale(0.100000,-0.100000)"
fill="#000000" stroke="none">
<path d="M2297 4929 c-218 -23 -401 -69 -615 -155 -617 -247 -1089 -719 -1336
-1336 -129 -321 -174 -587 -163 -958 10 -329 57 -550 179 -840 281 -669 862
-1181 1564 -1379 387 -109 881 -109 1268 0 914 258 1587 1023 1728 1964 18
121 18 549 0 670 -22 143 -51 268 -89 383 -229 696 -725 1227 -1395 1496 -303
121 -549 167 -893 164 -93 0 -205 -4 -248 -9z m661 -1716 l1202 -6 0 -654 0
-653 -440 0 -440 0 -32 -29 -33 -29 -3 -441 -3 -441 -1018 2 -1017 3 -59 30
c-37 19 -72 46 -92 73 -65 86 -63 41 -63 1149 l0 1003 398 0 c219 0 939 -3
1600 -7z m1200 -1738 l-3 -300 -28 -57 c-30 -60 -78 -106 -144 -135 -33 -15
-84 -18 -393 -21 l-355 -3 460 461 460 460 3 -52 c2 -29 2 -188 0 -353z"/>
<path d="M2443 2841 c-175 -8 -167 4 -171 -254 -4 -226 3 -269 46 -291 19 -9
89 -16 228 -21 166 -5 207 -4 236 8 66 28 68 36 68 282 -1 232 -1 234 -50 268
-26 18 -94 20 -357 8z"/>
<path d="M3095 2838 c-53 -29 -55 -37 -55 -275 l0 -223 29 -32 29 -33 199 -3
c217 -4 259 3 292 45 20 24 21 39 21 245 l0 220 -34 34 -34 34 -213 0 c-136 0
-221 -5 -234 -12z"/>
<path d="M1556 2814 l-26 -27 0 -224 0 -225 29 -29 29 -29 212 0 c230 0 255 5
278 55 8 17 12 94 12 236 l0 211 -29 29 -29 29 -225 0 -224 0 -27 -26z"/>
<path d="M2444 2083 c-115 -3 -122 -5 -145 -29 -24 -25 -24 -27 -24 -250 l0
-224 28 -27 27 -28 230 -3 230 -3 30 30 30 29 0 222 c0 133 -4 229 -10 241 -6
10 -24 26 -40 34 -30 15 -44 16 -356 8z"/>
<path d="M1555 2055 l-25 -24 0 -221 c0 -139 4 -229 11 -242 21 -40 66 -48
267 -48 113 0 202 4 221 11 56 20 61 44 61 278 l0 209 -26 31 -26 31 -229 0
-230 0 -24 -25z"/>
</g>
</svg>
